<?xml version="1.0" encoding="UTF-8"?>
<svg version="1.1" xmlns="http://www.w3.org/2000/svg" width="512" height="512">
<path d="M0 0 C1.01790619 0.00215515 2.03581238 0.0043103 3.08456421 0.00653076 C17.69363523 0.05620146 32.02575853 0.30709809 46.375 3.3125 C47.34985352 3.51117676 48.32470703 3.70985352 49.32910156 3.91455078 C97.7109774 14.03517194 141.69928269 35.9516877 177.375 70.3125 C178.3640332 71.26068604 178.3640332 71.26068604 179.37304688 72.22802734 C188.86130305 81.37247479 197.6012044 90.66984009 205.375 101.3125 C206.23306152 102.46355017 207.09113451 103.61459177 207.94921875 104.765625 C213.98736829 112.95680614 219.34595521 121.47054105 224.375 130.3125 C224.73948242 130.94430176 225.10396484 131.57610352 225.47949219 132.22705078 C247.08534998 169.97532572 256.85198095 212.74189997 256.6875 255.9375 C256.68534485 256.95540619 256.6831897 257.97331238 256.68096924 259.02206421 C256.63129854 273.63113523 256.38040191 287.96325853 253.375 302.3125 C253.07698486 303.77478027 253.07698486 303.77478027 252.77294922 305.26660156 C242.65232806 353.6484774 220.7358123 397.63678269 186.375 433.3125 C185.74287598 433.97185547 185.11075195 434.63121094 184.45947266 435.31054688 C175.31502521 444.79880305 166.01765991 453.5387044 155.375 461.3125 C154.22394983 462.17056152 153.07290823 463.02863451 151.921875 463.88671875 C143.73224019 469.92427396 135.22961724 475.30707302 126.375 480.3125 C125.66778809 480.7146875 124.96057617 481.116875 124.23193359 481.53125 C101.69703464 494.2185914 77.43201763 502.6719835 52.1875 508.0625 C51.26267822 508.26133789 50.33785645 508.46017578 49.38500977 508.66503906 C34.14940266 511.75966808 19.1617355 512.6627719 3.64770508 512.62817383 C0.70811513 512.6250221 -2.2304558 512.64854926 -5.16992188 512.67382812 C-18.54306192 512.71848737 -31.43916711 511.51301542 -44.625 509.3125 C-46.33055054 509.03031616 -46.33055054 509.03031616 -48.07055664 508.74243164 C-91.33802759 500.97044532 -132.38793216 480.98345309 -165.625 452.3125 C-166.37007813 451.67828125 -167.11515625 451.0440625 -167.8828125 450.390625 C-181.38779833 438.57948485 -194.05918743 425.82889772 -204.625 411.3125 C-205.48149066 410.16255169 -206.33826433 409.01281411 -207.1953125 407.86328125 C-213.23534209 399.67315742 -218.61867614 391.16870382 -223.625 382.3125 C-224.0271875 381.60528809 -224.429375 380.89807617 -224.84375 380.16943359 C-237.8691741 357.03404164 -246.61801461 331.86287591 -251.9375 305.875 C-252.08485596 305.15610596 -252.23221191 304.43721191 -252.3840332 303.6965332 C-255.35789088 288.05024391 -255.99800362 272.57681954 -255.9375 256.6875 C-255.93534485 255.66959381 -255.9331897 254.65168762 -255.93096924 253.60293579 C-255.88129854 238.99386477 -255.63040191 224.66174147 -252.625 210.3125 C-252.42632324 209.33764648 -252.22764648 208.36279297 -252.02294922 207.35839844 C-241.90232806 158.9765226 -219.9858123 114.98821731 -185.625 79.3125 C-184.99287598 78.65314453 -184.36075195 77.99378906 -183.70947266 77.31445312 C-174.56502521 67.82619695 -165.26765991 59.0862956 -154.625 51.3125 C-153.47394983 50.45443848 -152.32290823 49.59636549 -151.171875 48.73828125 C-142.98224019 42.70072604 -134.47961724 37.31792698 -125.625 32.3125 C-124.91778809 31.9103125 -124.21057617 31.508125 -123.48193359 31.09375 C-100.34654164 18.0683259 -75.17537591 9.31948539 -49.1875 4 C-48.46860596 3.85264404 -47.74971191 3.70528809 -47.0090332 3.5534668 C-31.36274391 0.57960912 -15.88931954 -0.06050362 0 0 Z " fill="#FEEB28" transform="translate(255.625,-0.3125)"/>
<path d="M0 0 C1.01790619 0.00215515 2.03581238 0.0043103 3.08456421 0.00653076 C17.69363523 0.05620146 32.02575853 0.30709809 46.375 3.3125 C47.34985352 3.51117676 48.32470703 3.70985352 49.32910156 3.91455078 C97.7109774 14.03517194 141.69928269 35.9516877 177.375 70.3125 C178.3640332 71.26068604 178.3640332 71.26068604 179.37304688 72.22802734 C188.86130305 81.37247479 197.6012044 90.66984009 205.375 101.3125 C206.23306152 102.46355017 207.09113451 103.61459177 207.94921875 104.765625 C213.98736829 112.95680614 219.34595521 121.47054105 224.375 130.3125 C224.73948242 130.94430176 225.10396484 131.57610352 225.47949219 132.22705078 C247.08534998 169.97532572 256.85198095 212.74189997 256.6875 255.9375 C256.68534485 256.95540619 256.6831897 257.97331238 256.68096924 259.02206421 C256.63129854 273.63113523 256.38040191 287.96325853 253.375 302.3125 C253.07698486 303.77478027 253.07698486 303.77478027 252.77294922 305.26660156 C242.65232806 353.6484774 220.7358123 397.63678269 186.375 433.3125 C185.74287598 433.97185547 185.11075195 434.63121094 184.45947266 435.31054688 C175.31502521 444.79880305 166.01765991 453.5387044 155.375 461.3125 C154.22394983 462.17056152 153.07290823 463.02863451 151.921875 463.88671875 C143.73224019 469.92427396 135.22961724 475.30707302 126.375 480.3125 C125.66778809 480.7146875 124.96057617 481.116875 124.23193359 481.53125 C101.69703464 494.2185914 77.43201763 502.6719835 52.1875 508.0625 C51.26267822 508.26133789 50.33785645 508.46017578 49.38500977 508.66503906 C34.14940266 511.75966808 19.1617355 512.6627719 3.64770508 512.62817383 C0.70811513 512.6250221 -2.2304558 512.64854926 -5.16992188 512.67382812 C-18.54306192 512.71848737 -31.43916711 511.51301542 -44.625 509.3125 C-46.33055054 509.03031616 -46.33055054 509.03031616 -48.07055664 508.74243164 C-91.33802759 500.97044532 -132.38793216 480.98345309 -165.625 452.3125 C-166.37007813 451.67828125 -167.11515625 451.0440625 -167.8828125 450.390625 C-181.38779833 438.57948485 -194.05918743 425.82889772 -204.625 411.3125 C-205.48149066 410.16255169 -206.33826433 409.01281411 -207.1953125 407.86328125 C-213.23534209 399.67315742 -218.61867614 391.16870382 -223.625 382.3125 C-224.0271875 381.60528809 -224.429375 380.89807617 -224.84375 380.16943359 C-237.8691741 357.03404164 -246.61801461 331.86287591 -251.9375 305.875 C-252.08485596 305.15610596 -252.23221191 304.43721191 -252.3840332 303.6965332 C-255.35789088 288.05024391 -255.99800362 272.57681954 -255.9375 256.6875 C-255.93534485 255.66959381 -255.9331897 254.65168762 -255.93096924 253.60293579 C-255.88129854 238.99386477 -255.63040191 224.66174147 -252.625 210.3125 C-252.42632324 209.33764648 -252.22764648 208.36279297 -252.02294922 207.35839844 C-241.90232806 158.9765226 -219.9858123 114.98821731 -185.625 79.3125 C-184.99287598 78.65314453 -184.36075195 77.99378906 -183.70947266 77.31445312 C-174.56502521 67.82619695 -165.26765991 59.0862956 -154.625 51.3125 C-153.47394983 50.45443848 -152.32290823 49.59636549 -151.171875 48.73828125 C-142.98224019 42.70072604 -134.47961724 37.31792698 -125.625 32.3125 C-124.91778809 31.9103125 -124.21057617 31.508125 -123.48193359 31.09375 C-100.34654164 18.0683259 -75.17537591 9.31948539 -49.1875 4 C-48.46860596 3.85264404 -47.74971191 3.70528809 -47.0090332 3.5534668 C-31.36274391 0.57960912 -15.88931954 -0.06050362 0 0 Z M-103.21289062 75.67089844 C-119.45705825 94.55502414 -125.336964 118.47452143 -125.015625 142.81640625 C-125.00813789 144.51846135 -125.0024567 146.22052525 -124.99847412 147.92259216 C-124.98341163 152.34000678 -124.94430484 156.75687088 -124.8996582 161.17407227 C-124.85096752 166.50738909 -124.83307884 171.840893 -124.80984497 177.17436981 C-124.77143564 185.22079269 -124.69464979 193.26601466 -124.625 201.3125 C-140.135 201.3125 -155.645 201.3125 -171.625 201.3125 C-171.69293105 219.68105613 -171.74810575 238.04950928 -171.78043652 256.41815948 C-171.79585261 264.94857812 -171.81684052 273.47891269 -171.85131836 282.00927734 C-171.88138285 289.45130935 -171.90061312 296.89328043 -171.90726548 304.33537149 C-171.91114912 308.26959186 -171.92016402 312.20363804 -171.94219017 316.13780212 C-171.96282604 319.85438867 -171.96878027 323.57073228 -171.96432304 327.28737068 C-171.96551883 329.27388261 -171.98151707 331.26036919 -171.9982605 333.24681091 C-171.90499566 360.95535066 -161.13362592 385.90328408 -141.6875 405.625 C-136.7398824 410.51085057 -131.52639112 414.61340508 -125.625 418.3125 C-124.83738281 418.83328125 -124.04976562 419.3540625 -123.23828125 419.890625 C-107.4035715 429.98812107 -88.37127957 434.46730177 -69.75927734 434.45776367 C-68.80524017 434.46112228 -67.851203 434.4644809 -66.86825562 434.46794128 C-63.73246944 434.47739402 -60.59673702 434.47939175 -57.4609375 434.48046875 C-55.26388528 434.48368602 -53.06683327 434.48705044 -50.86978149 434.49055481 C-46.26848861 434.49653244 -41.66721446 434.49839619 -37.06591797 434.49780273 C-31.20239008 434.49770136 -25.33898396 434.51133395 -19.47548485 434.52857494 C-14.93697571 434.53975745 -10.3984954 434.54172001 -5.85997391 434.54119301 C-3.70007535 434.54236447 -1.54017583 434.54673881 0.61970901 434.55452538 C25.4877943 434.63576369 48.2371115 431.40442567 69.375 417.3125 C73.29185881 417.69495423 76.64432579 419.17366732 80.25 420.6875 C105.09480864 430.26454914 131.29503858 427.8674736 155.375 417.3125 C177.83847197 406.75323738 194.90081859 388.79512878 204.12890625 365.81640625 C206.17602423 360.06009018 207.85264944 354.23014987 209.375 348.3125 C209.55224609 347.70736572 209.72949219 347.10223145 209.91210938 346.47875977 C214.98252225 322.7499763 208.07560989 296.42383043 195.375 276.3125 C181.87050625 256.64825334 164.03041053 243.48552967 141.375 236.3125 C140.33730469 235.97347656 139.29960937 235.63445312 138.23046875 235.28515625 C129.78633988 232.83217638 123.77309394 233.3125 114.375 233.3125 C114.375 222.7525 114.375 212.1925 114.375 201.3125 C98.535 201.3125 82.695 201.3125 66.375 201.3125 C66.40980469 195.91648438 66.44460938 190.52046875 66.48046875 184.9609375 C66.49582102 181.51561399 66.51026453 178.07033343 66.52148438 174.625 C66.53932691 169.17210996 66.56029414 163.71937292 66.60131836 158.26660156 C66.63422945 153.86398278 66.65191897 149.46152836 66.65963173 145.05879593 C66.66511888 143.39010663 66.67583147 141.72142499 66.69219017 140.05280685 C66.92457424 115.33659997 59.71025921 93.26663844 43.375 74.3125 C42.84519531 73.63832031 42.31539062 72.96414062 41.76953125 72.26953125 C27.84466564 55.04395676 4.95159143 44.4475103 -16.625 41.3125 C-20.52573089 41.02735389 -24.40236438 40.97799586 -28.3125 41 C-29.36687256 41.00563965 -30.42124512 41.0112793 -31.50756836 41.01708984 C-59.91768346 41.45661219 -84.23077378 54.92096226 -103.21289062 75.67089844 Z " fill="#554E71" transform="translate(255.625,-0.3125)"/>
<path d="M0 0 C5.38393345 4.50186899 10.418034 9.2518484 15.39659119 14.19558716 C16.21519908 15.00487384 17.03380697 15.81416052 17.87722117 16.64797103 C20.60793147 19.34903597 23.33514888 22.05359816 26.06225586 24.75830078 C27.52350488 26.20546302 28.98510042 27.65227468 30.44672119 29.09906144 C48.80231544 47.26932363 67.11288794 65.4851149 85.41405392 83.71017647 C87.79262905 86.07868445 90.17129599 88.44710018 92.55004883 90.81542969 C93.43680957 91.6983171 93.43680957 91.6983171 94.34148467 92.59904061 C103.92918485 102.14356798 113.53930372 111.66520465 123.15822475 121.17825569 C133.04351125 130.95564005 142.90593777 140.75563869 152.74713427 150.577402 C158.2694149 156.08753688 163.80153256 161.58695982 169.35996819 167.06064224 C174.09058315 171.71913754 178.80042272 176.39742668 183.48438083 181.10285111 C185.87384074 183.50197457 188.27432811 185.88622556 190.69650078 188.25257683 C193.3237301 190.82231984 195.91127685 193.42647443 198.49229431 196.04251099 C199.26181818 196.77776288 200.03134206 197.51301478 200.82418483 198.27054703 C204.90047762 202.49186823 206.45552495 205.26200619 206.52001286 211.21560478 C206.17530701 216.94320276 205.23364448 222.5274756 204 228.125 C203.77852295 229.14779053 203.5570459 230.17058105 203.32885742 231.22436523 C198.73248813 251.66525558 192.01840547 271.09860866 183 290 C182.63825684 290.76070801 182.27651367 291.52141602 181.90380859 292.30517578 C170.89658163 315.06301486 155.49835665 335.83202366 138 354 C137.36787598 354.65935547 136.73575195 355.31871094 136.08447266 355.99804688 C126.94002521 365.48630305 117.64265991 374.2262044 107 382 C105.84894983 382.85806152 104.69790823 383.71613451 103.546875 384.57421875 C95.35724019 390.61177396 86.85461724 395.99457302 78 401 C77.29278809 401.4021875 76.58557617 401.804375 75.85693359 402.21875 C53.32203464 414.9060914 29.05701763 423.3594835 3.8125 428.75 C2.42526733 429.04825684 2.42526733 429.04825684 1.01000977 429.35253906 C-14.39028771 432.48061969 -29.48616654 433.32699637 -45.16674805 433.26074219 C-48.19404953 433.24997671 -51.22076271 433.26072706 -54.24804688 433.2734375 C-56.22135544 433.27211623 -58.19466365 433.26955451 -60.16796875 433.265625 C-61.04857468 433.26967346 -61.9291806 433.27372192 -62.83647156 433.27789307 C-65.56599765 433.25800025 -68.27395405 433.14151905 -71 433 C-72.60602664 432.92504209 -72.60602664 432.92504209 -74.24449825 432.84856987 C-83.92436086 431.97862782 -88.61685212 429.08915815 -95.21826172 422.14404297 C-96.13714172 421.22691528 -97.05602173 420.3097876 -98.00274658 419.36486816 C-100.49636066 416.87466591 -102.95148917 414.34951767 -105.40084982 411.81587744 C-107.97613697 409.16503783 -110.58597411 406.54864673 -113.19216919 403.92825317 C-118.11070441 398.97257561 -122.9978751 393.98714782 -127.8742305 388.98999798 C-133.43203619 383.29757354 -139.0243865 377.63961233 -144.61974692 371.98413634 C-156.1184101 360.36039481 -167.57342274 348.69462181 -179 337 C-175.22883066 337 -173.80317906 338.18942228 -170.625 340.1875 C-154.69582966 349.67233612 -136.58137433 354.15471726 -118.13427734 354.14526367 C-117.18024017 354.14862228 -116.226203 354.1519809 -115.24325562 354.15544128 C-112.10746944 354.16489402 -108.97173702 354.16689175 -105.8359375 354.16796875 C-103.63888528 354.17118602 -101.44183327 354.17455044 -99.24478149 354.17805481 C-94.64348861 354.18403244 -90.04221446 354.18589619 -85.44091797 354.18530273 C-79.57739008 354.18520136 -73.71398396 354.19883395 -67.85048485 354.21607494 C-63.31197571 354.22725745 -58.7734954 354.22922001 -54.23497391 354.22869301 C-52.07507535 354.22986447 -49.91517583 354.23423881 -47.75529099 354.24202538 C-22.8872057 354.32326369 -0.1378885 351.09192567 21 337 C24.91685881 337.38245423 28.26932579 338.86116732 31.875 340.375 C56.71980864 349.95204914 82.92003858 347.5549736 107 337 C129.13301177 326.59607472 145.67816058 309.10328428 154.75390625 286.50390625 C156.80102423 280.74759018 158.47764944 274.91764987 160 269 C160.17724609 268.39486572 160.35449219 267.78973145 160.53710938 267.16625977 C165.60621483 243.44359486 158.70523369 217.10445024 146 197 C130.21390891 174.10827812 108.16099322 160.43219864 81 155 C76.05 154.67 71.1 154.34 66 154 C66 143.44 66 132.88 66 122 C50.16 122 34.32 122 18 122 C17.94392578 113.90597656 17.94392578 113.90597656 17.88671875 105.6484375 C17.85639595 102.20309479 17.82522003 98.75780106 17.79101562 95.3125 C17.73696121 89.85972759 17.68584283 84.40705205 17.65356445 78.95410156 C17.62730309 74.55132041 17.58674497 70.14886997 17.53681374 65.74629593 C17.52029772 64.07767518 17.50868947 62.40899743 17.50238609 60.74030685 C17.42157817 41.29075126 13.18951193 24.97252671 3.55078125 7.875 C2.15744309 5.29188442 1.0248499 2.7463958 0 0 Z " fill="#31313F" transform="translate(304,79)"/>
<path d="M0 0 C0.90363281 0.72703125 1.80726563 1.4540625 2.73828125 2.203125 C19.74038737 16.72826234 32.57844565 38.97559754 34.81030273 61.42089844 C35.90090614 76.24861314 36.23951686 90.93002015 31 105 C30.57589844 106.23492187 30.15179688 107.46984375 29.71484375 108.7421875 C21.418163 131.90659119 3.43933581 152.30739775 -18.84619141 162.87548828 C-43.05696846 173.71566846 -69.13033966 175.2985446 -94.2890625 166.90234375 C-121.01469257 156.50120804 -140.51169972 137.05809777 -152 111 C-161.31008499 88.2193858 -160.61260134 61.34123509 -151.625 38.625 C-147.17260433 28.71875796 -142.01813804 20.29286107 -135 12 C-134.55398438 11.40832031 -134.10796875 10.81664062 -133.6484375 10.20703125 C-120.67128989 -6.55180048 -97.76930471 -17.73767487 -77.11328125 -20.77734375 C-48.98398558 -24.34687301 -22.28614338 -18.03959612 0 0 Z " fill="#8EE16B" transform="translate(431,254)"/>
<path d="M0 0 C1.14726562 0.38542969 2.29453125 0.77085938 3.4765625 1.16796875 C15.07402737 5.36424117 24.61009288 11.05344648 34 19 C34.88751953 19.66902344 34.88751953 19.66902344 35.79296875 20.3515625 C52.06144217 32.94900273 63.16514131 55.26456214 66.54759216 75.23268127 C67.0156574 79.13038325 67.13379539 82.94556082 67.11352539 86.86303711 C67.11367142 87.61508423 67.11381744 88.36713135 67.1139679 89.14196777 C67.11327662 91.60379011 67.10552131 94.06553479 67.09765625 96.52734375 C67.09578928 98.2436977 67.09436669 99.96005219 67.09336853 101.67640686 C67.08956533 106.17592867 67.07975398 110.67541779 67.06866455 115.17492676 C67.05659625 120.58319676 67.05203772 125.99147775 67.04621124 131.39975739 C67.03654092 139.59986094 67.01736902 147.79989287 67 156 C50.83 156 34.66 156 18 156 C17.96132813 148.41257813 17.96132813 148.41257813 17.921875 140.671875 C17.89667426 137.4452636 17.8703167 134.21874295 17.83984375 130.9921875 C17.79170641 125.88378699 17.74758826 120.77559687 17.72900391 115.66699219 C17.71373109 111.54293741 17.67910092 107.41943744 17.63169098 103.29563141 C17.61698569 101.73142603 17.6089653 100.1671414 17.60811615 98.60286713 C17.59167626 83.48737642 14.58042504 70.43668367 4.12109375 58.93359375 C-4.97350005 50.42693329 -16.00032758 46.60157258 -28.3125 46.6875 C-29.15409668 46.69313965 -29.99569336 46.6987793 -30.86279297 46.70458984 C-41.42535793 46.91097774 -48.56571286 49.66614344 -57 56 C-58.03125 56.721875 -59.0625 57.44375 -60.125 58.1875 C-68.81231977 65.7889048 -73.26848438 77.67046444 -74.38967896 88.90444946 C-74.59978491 93.20206261 -74.60699711 97.49895386 -74.609375 101.80078125 C-74.62439467 103.37405567 -74.64112959 104.94731455 -74.65948486 106.52055359 C-74.70274668 110.61555803 -74.72306473 114.71035 -74.73822021 118.80554199 C-74.76142308 123.74354348 -74.81380366 128.68131542 -74.86116028 133.619133 C-74.92950948 141.07948106 -74.96133285 148.53917372 -75 156 C-91.17 156 -107.34 156 -124 156 C-124.16043524 137.46527355 -124.16043524 137.46527355 -124.1953125 129.45898438 C-124.21906448 124.03263361 -124.24691341 118.60655717 -124.30175781 113.18041992 C-124.3457747 108.79722563 -124.36925249 104.4143262 -124.37950897 100.03092766 C-124.38680166 98.37307033 -124.40103643 96.71522595 -124.42292023 95.05749702 C-124.76415407 68.0933782 -115.77109452 44.55322346 -97 25 C-96.01 23.93265625 -96.01 23.93265625 -95 22.84375 C-71.3847234 -1.91420128 -32.16693768 -10.89983429 0 0 Z " fill="#FEFEFE" transform="translate(255,45)"/>
<path d="M0 0 C47.19 0 94.38 0 143 0 C143 10.23 143 20.46 143 31 C141.08035681 32.91964319 138.19011461 32.35192812 135.61450195 32.54321289 C114.14672915 34.20150779 95.27310548 41.64501722 79 56 C78.40445313 56.45375 77.80890625 56.9075 77.1953125 57.375 C62.43298638 68.80389764 53.01508571 88.19215873 49 106 C48.82484863 106.66427002 48.64969727 107.32854004 48.46923828 108.01293945 C46.93733602 114.11001899 46.68784561 119.917741 46.75 126.1875 C46.75894287 127.20489258 46.76788574 128.22228516 46.77709961 129.27050781 C47.18260405 155.68502537 56.57393373 179.01774839 75.49462891 197.56591797 C82.6649887 204.39671483 90.12174827 209.62097835 99 214 C95.7597803 217.67388547 92.08953856 219.80207164 87.75 221.9375 C87.05414795 222.28304932 86.3582959 222.62859863 85.64135742 222.98461914 C75.29609171 227.95939806 63.6737908 232.13872286 52.1081543 232.11352539 C50.93119995 232.11340454 49.75424561 232.11328369 48.54162598 232.11315918 C47.31488159 232.10804321 46.08813721 232.10292725 44.82421875 232.09765625 C43.68907837 232.09664917 42.55393799 232.09564209 41.38439941 232.09460449 C37.1520893 232.08938029 32.91979362 232.07541902 28.6875 232.0625 C19.220625 232.041875 9.75375 232.02125 0 232 C0 212.2 0 192.4 0 172 C8.58 172 17.16 172 26 172 C25.89558594 165.98458984 25.89558594 165.98458984 25.7890625 159.84765625 C25.75041464 156.62863529 25.71790041 153.40968081 25.6894989 150.19055939 C25.65795132 146.80388524 25.61587624 143.4181276 25.54736328 140.03198242 C25.47423757 136.13696296 25.44046877 132.24323907 25.4140625 128.34765625 C25.38309479 127.1473024 25.35212708 125.94694855 25.32022095 124.71022034 C25.31700322 116.61237379 26.99156814 112.26610671 32 106 C34.86964453 100.55192222 35.51758374 96.15416143 35.4375 90.125 C35.42992676 89.32852051 35.42235352 88.53204102 35.41455078 87.71142578 C35.24639095 81.72027141 34.38287583 77.0533021 31 72 C30.56429688 71.30777344 30.12859375 70.61554688 29.6796875 69.90234375 C23.73095715 61.20679529 16.03449626 56.81949103 6 54 C4.02 53.67 2.04 53.34 0 53 C0 35.51 0 18.02 0 0 Z " fill="#FECA00" transform="translate(227,201)"/>
<path d="M0 0 C17.4481821 0 17.4481821 0 25.5625 2.5625 C26.45308105 2.8320752 27.34366211 3.10165039 28.26123047 3.37939453 C40.43857759 7.21271872 51.05896444 12.95319426 61 21 C61.90363281 21.72703125 62.80726563 22.4540625 63.73828125 23.203125 C80.74038737 37.72826234 93.57844565 59.97559754 95.81030273 82.42089844 C96.90090614 97.24861314 97.23951686 111.93002015 92 126 C91.57589844 127.23492187 91.15179688 128.46984375 90.71484375 129.7421875 C82.418163 152.90659119 64.43933581 173.30739775 42.15380859 183.87548828 C30.34363706 189.16339734 17.81535164 193.07265641 4.7890625 193.01953125 C3.8913916 193.01671143 2.9937207 193.0138916 2.06884766 193.01098633 C1.38612793 193.00736084 0.7034082 193.00373535 0 193 C-4.51129269 176.03661883 -7.86804543 155.44258758 0 139 C8.18342729 125.47069869 20.56811715 114.36170078 32 103.625 C32.76530029 102.90592468 33.53060059 102.18684937 34.3190918 101.44598389 C44.00330399 92.38786656 53.89920893 83.59016357 64 75 C62.17924329 71.06287813 59.62350502 68.36663961 56.5546875 65.359375 C56.02481232 64.83232971 55.49493713 64.30528442 54.94900513 63.76226807 C53.26232175 62.08674325 51.56880436 60.41832278 49.875 58.75 C48.72740612 57.61244149 47.58026539 56.47442564 46.43359375 55.3359375 C43.62761863 52.55196535 40.81549536 49.7743424 38 47 C34.95463834 48.36017069 32.87065783 49.88780086 30.5324707 52.25634766 C29.8753157 52.91688141 29.21816071 53.57741516 28.54109192 54.25796509 C27.8430394 54.96947723 27.14498688 55.68098938 26.42578125 56.4140625 C25.70134323 57.14370209 24.97690521 57.87334167 24.23051453 58.62509155 C21.91971151 60.95369813 19.61571279 63.2888876 17.3125 65.625 C14.99770485 67.96736079 12.68148771 70.30826978 10.36235046 72.64633179 C8.91951362 74.10148267 7.47935722 75.55929685 6.04206848 77.01992798 C5.39436996 77.67415741 4.74667145 78.32838684 4.0793457 79.00244141 C3.50738968 79.58265045 2.93543365 80.1628595 2.34614563 80.76065063 C1 82 1 82 0 82 C0 54.94 0 27.88 0 0 Z " fill="#37B68D" transform="translate(370,233)"/>
<path d="M0 0 C9.91115835 7.74041473 16.78222995 17.90508739 19.25 30.375 C19.33803369 32.72815013 19.36764216 35.08368389 19.36352539 37.43847656 C19.36364593 38.15263607 19.36376646 38.86679558 19.36389065 39.60259628 C19.36314617 41.90697122 19.35553916 44.21126459 19.34765625 46.515625 C19.34618539 47.94124309 19.34516557 49.36686173 19.34460449 50.79248047 C19.3393683 56.06999523 19.32540706 61.34749842 19.3125 66.625 C19.291875 78.4225 19.27125 90.22 19.25 102.375 C-11.44 102.375 -42.13 102.375 -73.75 102.375 C-73.8325 90.928125 -73.915 79.48125 -74 67.6875 C-74.03641602 64.09915283 -74.07283203 60.51080566 -74.11035156 56.8137207 C-74.12841797 52.36560059 -74.12841797 52.36560059 -74.1317749 50.27043152 C-74.13783924 48.83511871 -74.15174155 47.39982373 -74.17230225 45.96464539 C-74.38348098 30.42038181 -71.4216438 16.98051314 -60.71875 5.125 C-44.29140119 -10.58811626 -18.80139554 -12.68837349 0 0 Z " fill="#323240" transform="translate(253.75,98.625)"/>
<path d="M0 0 C23.81420595 0 44.75303546 7.55783657 63 23 C63.59167969 23.44601563 64.18335938 23.89203125 64.79296875 24.3515625 C81.06144217 36.94900273 92.16514131 59.26456214 95.54759216 79.23268127 C96.0156574 83.13038325 96.13379539 86.94556082 96.11352539 90.86303711 C96.11367142 91.61508423 96.11381744 92.36713135 96.1139679 93.14196777 C96.11327662 95.60379011 96.10552131 98.06553479 96.09765625 100.52734375 C96.09578928 102.2436977 96.09436669 103.96005219 96.09336853 105.67640686 C96.08956533 110.17592867 96.07975398 114.67541779 96.06866455 119.17492676 C96.05659625 124.58319676 96.05203772 129.99147775 96.04621124 135.39975739 C96.03654092 143.59986094 96.01736902 151.79989287 96 160 C79.83 160 63.66 160 47 160 C46.97421875 154.94171875 46.9484375 149.8834375 46.921875 144.671875 C46.89667426 141.4452636 46.8703167 138.21874295 46.83984375 134.9921875 C46.79170641 129.88378699 46.74758826 124.77559687 46.72900391 119.66699219 C46.71373109 115.54293741 46.67910092 111.41943744 46.63169098 107.29563141 C46.61698569 105.73142603 46.6089653 104.1671414 46.60811615 102.60286713 C46.59167626 87.48737642 43.58042504 74.43668367 33.12109375 62.93359375 C24.28291134 54.66676858 13.4987037 50.89918827 1.5625 50.375 C0.83095703 50.33632812 0.09941406 50.29765625 -0.65429688 50.2578125 C-2.43583532 50.16466016 -4.21788122 50.08129714 -6 50 C-6 49.67 -6 49.34 -6 49 C-3.69 49 -1.38 49 1 49 C0.67 32.83 0.34 16.66 0 0 Z " fill="#E1E1E1" transform="translate(226,41)"/>
<path d="M0 0 C8.33198663 5.97902451 14.25420551 13.06564484 17 23 C18.6974744 35.2092304 16.77363875 44.70161711 10 55 C9.01 55.99 9.01 55.99 8 57 C7.6682747 59.50689829 7.6682747 59.50689829 7.68115234 62.45947266 C7.66128265 63.60050446 7.64141296 64.74153625 7.62094116 65.91714478 C7.60361435 67.77186905 7.60361435 67.77186905 7.5859375 69.6640625 C7.56657135 70.92640717 7.5472052 72.18875183 7.5272522 73.48934937 C7.47750955 76.84634212 7.43627428 80.20322315 7.39910889 83.56036377 C7.35911153 86.98565622 7.30810738 90.41078332 7.2578125 93.8359375 C7.15992961 100.55722949 7.080473 107.27838648 7 114 C-10.49 114 -27.98 114 -46 114 C-46.00386719 107.98458984 -46.00386719 107.98458984 -46.0078125 101.84765625 C-46.02665629 98.62854143 -46.0514708 95.40959442 -46.08029175 92.19055939 C-46.1089872 88.80418068 -46.12742191 85.41849109 -46.12011719 82.03198242 C-46.11724916 78.13648562 -46.15268414 74.24288909 -46.1953125 70.34765625 C-46.18621857 69.1473024 -46.17712463 67.94694855 -46.16775513 66.71022034 C-46.30599203 58.65302942 -48.03469079 54.25148137 -53 48 C-57.47634574 40.17571414 -57.3079121 29.63067244 -55.30859375 21.0234375 C-51.47148787 10.65201324 -44.23912281 2.73525515 -34.43359375 -2.32421875 C-22.6674789 -7.2053581 -11.10782493 -6.0536942 0 0 Z " fill="#FF9D21" transform="translate(246,259)"/>
<path d="M0 0 C4.03070124 1.85723377 6.78284024 4.52717467 9.859375 7.6640625 C10.683237 8.49216934 10.683237 8.49216934 11.52374268 9.33700562 C13.27059293 11.09501815 15.01034601 12.8598689 16.75 14.625 C17.93573591 15.8207708 19.1219288 17.01608865 20.30859375 18.2109375 C23.21105085 21.13540253 26.1071641 24.06601874 29 27 C27.68634063 29.90297734 26.27927877 31.96908109 24.02609253 34.2144165 C23.41752411 34.82573425 22.80895569 35.437052 22.1819458 36.06689453 C21.51588318 36.7257666 20.84982056 37.38463867 20.16357422 38.06347656 C19.46102509 38.76631775 18.75847595 39.46915894 18.03463745 40.19329834 C15.71269689 42.51384625 13.38375372 44.8272308 11.0546875 47.140625 C9.44285268 48.74872947 7.83145903 50.35727625 6.2204895 51.96624756 C1.98012971 56.19897265 -2.26620206 60.42565715 -6.51379395 64.65112305 C-10.84744543 68.96431271 -15.17543788 73.28317249 -19.50390625 77.6015625 C-27.99706673 86.07327591 -36.49654528 94.53862033 -45 103 C-49.29458275 99.39270028 -53.42055543 95.70305638 -57.38452148 91.72900391 C-57.8732222 91.24044922 -58.36192291 90.75189453 -58.86543274 90.24853516 C-60.45304003 88.66024061 -62.03709237 87.06845249 -63.62109375 85.4765625 C-64.73188169 84.36390615 -65.8428931 83.25147284 -66.95411682 82.13925171 C-69.85788934 79.2316873 -72.75864436 76.32113095 -75.65875244 73.40991211 C-78.62678263 70.43159571 -81.59769662 67.45615894 -84.56835938 64.48046875 C-90.38171083 58.65643877 -96.19187334 52.8292405 -102 47 C-100.14276623 42.96929876 -97.47282533 40.21715976 -94.3359375 37.140625 C-93.50783066 36.316763 -93.50783066 36.316763 -92.66299438 35.47625732 C-90.90498185 33.72940707 -89.1401311 31.98965399 -87.375 30.25 C-86.1792292 29.06426409 -84.98391135 27.8780712 -83.7890625 26.69140625 C-80.86459747 23.78894915 -77.93398126 20.8928359 -75 18 C-70.89891114 19.62156024 -68.16851833 22.5767703 -65.140625 25.6640625 C-64.59138367 26.21613373 -64.04214233 26.76820496 -63.47625732 27.33700562 C-61.72940707 29.09501815 -59.98965399 30.8598689 -58.25 32.625 C-57.06426409 33.8207708 -55.8780712 35.01608865 -54.69140625 36.2109375 C-51.78894915 39.13540253 -48.8928359 42.06601874 -46 45 C-40.28299462 40.24863726 -35.02310577 35.15385413 -29.78515625 29.8828125 C-28.92941513 29.02565643 -28.07367401 28.16850037 -27.19200134 27.28536987 C-24.47979535 24.56760046 -21.7711017 21.84636109 -19.0625 19.125 C-17.21572631 17.27320658 -15.36872347 15.42164166 -13.52148438 13.5703125 C-9.01166799 9.04951565 -4.50472431 4.52587054 0 0 Z " fill="#E1E2E1" transform="translate(406,279)"/>
<path d="M0 0 C10.92106141 0 17.96793106 1.83855981 25.9375 9.375 C34.35555392 18.67592299 36.82451134 27.97501589 36.52734375 40.28125 C35.98051521 47.87798413 32.39346763 55.60653237 27 61 C26.6682747 63.50689829 26.6682747 63.50689829 26.68115234 66.45947266 C26.66128265 67.60050446 26.64141296 68.74153625 26.62094116 69.91714478 C26.60361435 71.77186905 26.60361435 71.77186905 26.5859375 73.6640625 C26.56657135 74.92640717 26.5472052 76.18875183 26.5272522 77.48934937 C26.47750955 80.84634212 26.43627428 84.20322315 26.39910889 87.56036377 C26.35911153 90.98565622 26.30810738 94.41078332 26.2578125 97.8359375 C26.15992961 104.55722949 26.080473 111.27838648 26 118 C17.42 118 8.84 118 0 118 C0 79.06 0 40.12 0 0 Z " fill="#FF8658" transform="translate(227,255)"/>
<path d="M0 0 C4.10108886 1.62156024 6.83148167 4.5767703 9.859375 7.6640625 C10.683237 8.49216934 10.683237 8.49216934 11.52374268 9.33700562 C13.27059293 11.09501815 15.01034601 12.8598689 16.75 14.625 C17.93573591 15.8207708 19.1219288 17.01608865 20.30859375 18.2109375 C23.21105085 21.13540253 26.1071641 24.06601874 29 27 C29.72316406 26.36771484 29.72316406 26.36771484 30.4609375 25.72265625 C31.09257812 25.17480469 31.72421875 24.62695312 32.375 24.0625 C33.00148438 23.51722656 33.62796875 22.97195313 34.2734375 22.41015625 C36 21 36 21 38 20 C38.18606523 27.29325078 38.32785604 34.58598311 38.41449738 41.88113403 C38.45610132 45.26943286 38.5124394 48.6560983 38.60351562 52.04345703 C38.70090196 55.94607129 38.7460089 59.84638964 38.78125 63.75 C38.82254028 64.95551514 38.86383057 66.16103027 38.90637207 67.40307617 C38.90971545 73.71403094 38.50788299 77.2427806 33.95117188 81.828125 C32.66241018 82.91972881 31.35405667 83.99052681 30 85 C23.38927013 79.5664118 17.40785804 73.53553957 11.37890625 67.4765625 C10.26811831 66.36390615 9.1571069 65.25147284 8.04588318 64.13925171 C5.14211066 61.2316873 2.24135564 58.32113095 -0.65875244 55.40991211 C-3.62678263 52.43159571 -6.59769662 49.45615894 -9.56835938 46.48046875 C-15.38171083 40.65643877 -21.19187334 34.8292405 -27 29 C-25.14276623 24.96929876 -22.47282533 22.21715976 -19.3359375 19.140625 C-18.78386627 18.59138367 -18.23179504 18.04214233 -17.66299438 17.47625732 C-15.90498185 15.72940707 -14.1401311 13.98965399 -12.375 12.25 C-11.1792292 11.06426409 -9.98391135 9.8780712 -8.7890625 8.69140625 C-5.86459747 5.78894915 -2.93398126 2.8928359 0 0 Z " fill="#FEFEFE" transform="translate(331,297)"/>
</svg>
